<?xml version="1.0" encoding="UTF-8"?><svg id="_レイヤー_2" xmlns="http://www.w3.org/2000/svg" viewBox="0 0 32 32"><defs><style>.cls-1{fill:#e6e2f6;}</style></defs><g id="_レイヤー_1-2"><rect class="cls-1" width="32" height="32"/><path d="M26,6.24c0,.12-.03.19-.09.19-1.61,0-2.41,1.08-2.41,3.23v16.2s-.04.07-.13.09c-.09.02-.15.01-.19-.03L9.41,8.66v13.22c0,1.1.19,1.9.57,2.42.38.52.96.78,1.75.78.06,0,.09.06.09.19s-.03.19-.09.19c-.51,0-.9-.01-1.17-.03l-1.5-.03-1.59.03c-.29.02-.72.03-1.29.03-.04,0-.06-.06-.06-.19s.02-.19.06-.19c.84,0,1.46-.26,1.86-.78.4-.52.6-1.32.6-2.42V7.79c-.86-.91-1.71-1.37-2.56-1.37-.06,0-.09-.06-.09-.19s.03-.19.09-.19l1.15.03c.23.02.57.03,1,.03l1.53-.03c.18-.02.4-.03.68-.03.16,0,.27.04.34.11.07.07.18.23.34.48.18.29.42.63.73,1.02l10.93,13.93v-11.95c0-1.1-.19-1.91-.56-2.44-.37-.53-.95-.79-1.73-.79-.04,0-.06-.06-.06-.19s.02-.19.06-.19l1.17.03c.59.04,1.09.06,1.5.06.35,0,.86-.02,1.53-.06l1.23-.03c.06,0,.09.06.09.19Z"/></g></svg>